<?xml version="1.0" standalone="no"?>
<!DOCTYPE svg PUBLIC "-//W3C//DTD SVG 20010904//EN"
 "http://www.w3.org/TR/2001/REC-SVG-20010904/DTD/svg10.dtd">
<svg version="1.0" xmlns="http://www.w3.org/2000/svg"
 width="841.000000pt" height="595.000000pt" viewBox="0 0 841.000000 595.000000"
 preserveAspectRatio="xMidYMid meet">

<g transform="translate(0.000000,595.000000) scale(0.100000,-0.100000)"
fill="#000000" stroke="none">
<path d="M2783 4478 c-9 -11 -18 -82 -64 -453 -20 -164 -6 -351 36 -479 14
-42 58 -145 99 -231 41 -85 73 -155 71 -155 -17 0 -56 27 -60 42 -12 36 -25
18 -19 -24 9 -55 27 -91 60 -117 26 -21 26 -21 4 -21 -12 0 -38 9 -56 21 -46
28 -44 5 2 -35 87 -74 114 -107 114 -136 0 -16 5 -41 11 -57 9 -25 7 -24 -24
12 l-35 40 22 -86 c12 -47 32 -102 44 -122 l21 -37 -27 0 c-15 0 -36 7 -46 15
-40 30 -34 13 17 -50 28 -36 69 -93 91 -127 34 -54 36 -60 17 -55 -19 5 -31
-7 -13 -15 4 -1 24 -24 45 -50 21 -27 45 -48 53 -48 8 0 14 -4 14 -9 0 -13
-26 -21 -66 -21 -44 0 -43 -13 6 -78 22 -29 40 -62 40 -74 0 -12 -12 -55 -26
-96 -32 -93 -28 -134 24 -247 35 -75 37 -86 37 -177 l0 -97 23 29 c13 17 29
30 37 30 7 0 32 -25 55 -55 32 -41 49 -55 69 -56 14 0 41 -2 59 -4 31 -3 33
-2 28 18 -4 12 -11 59 -15 105 -9 89 -21 119 -22 56 -1 -49 -22 -120 -34 -117
-16 3 -22 45 -12 96 9 53 -3 106 -30 129 -14 11 -15 9 -9 -19 8 -37 -2 -103
-16 -103 -12 0 -44 74 -53 122 -11 60 -25 44 -26 -29 l-1 -68 -13 66 c-7 36
-26 90 -41 120 -62 124 -4 310 106 334 37 8 70 49 69 84 0 14 -3 20 -6 13 -7
-17 -77 -52 -105 -52 -32 0 -68 11 -68 20 0 4 12 11 26 14 14 4 47 26 72 50
26 23 55 46 65 49 38 14 14 27 -50 27 -75 0 -126 20 -151 58 -14 22 -14 22 12
12 33 -12 146 -13 146 -1 0 5 -21 14 -47 21 -80 20 -138 49 -178 90 -21 22
-36 42 -33 45 3 3 20 -1 39 -9 79 -32 87 -31 42 8 -43 37 -105 117 -117 150
-3 10 21 -7 54 -38 92 -85 106 -75 37 26 -45 65 -70 115 -46 91 7 -7 19 -13
26 -13 12 0 -55 138 -85 173 -13 15 -13 17 0 17 18 0 85 -51 110 -83 21 -27
34 -17 18 15 -17 32 -91 108 -106 108 -7 0 -14 4 -16 8 -1 4 -20 18 -41 31
-21 13 -36 25 -34 27 9 9 102 -18 134 -37 18 -12 33 -18 33 -14 0 4 -23 39
-51 78 -80 109 -160 278 -199 420 l-20 72 24 -26 c13 -14 34 -45 45 -68 12
-22 23 -41 25 -41 12 0 -18 92 -52 162 -60 120 -72 161 -72 245 0 81 10 88 30
18 22 -78 28 -39 8 47 -11 46 -20 110 -20 143 0 57 20 184 43 267 10 38 10 38
62 38 114 0 251 -54 313 -123 117 -131 155 -169 161 -164 3 4 1 12 -5 19 -5 7
-24 37 -41 66 l-31 53 42 -29 c157 -108 420 -373 490 -494 52 -90 78 -73 36
24 -24 57 -26 55 62 89 103 40 324 33 425 -13 31 -14 33 -55 6 -114 -40 -87
-36 -143 4 -67 27 51 131 153 185 182 l45 24 -21 -24 c-32 -36 -59 -87 -51
-96 4 -4 15 4 24 18 34 48 80 81 178 129 125 61 167 75 334 110 l133 28 -56
-50 c-31 -28 -55 -53 -52 -56 3 -2 21 9 41 26 19 18 48 38 64 47 37 19 159 52
234 63 55 9 57 8 57 -14 0 -35 -27 -152 -49 -217 -22 -64 -144 -289 -167 -308
-19 -15 -18 -33 1 -25 32 12 -27 -76 -101 -152 -40 -43 -74 -80 -74 -85 0 -4
18 4 41 19 22 14 43 23 45 21 3 -2 -30 -42 -72 -88 -78 -85 -84 -111 -14 -65
22 14 42 26 45 26 7 0 -7 -62 -21 -91 -18 -36 -90 -99 -114 -99 -11 0 -20 -4
-20 -9 0 -5 21 -9 46 -9 25 0 48 -3 52 -6 12 -12 -20 -31 -71 -42 l-52 -11 43
-8 43 -8 -37 -38 c-24 -25 -51 -41 -73 -45 -63 -11 -69 -21 -20 -31 l44 -10
-35 -16 c-19 -9 -54 -21 -77 -27 -48 -12 -66 -30 -30 -30 l25 0 -18 -35 c-10
-20 -24 -43 -32 -52 -11 -15 -10 -16 10 -11 25 7 26 5 12 -20 -5 -9 -19 -37
-30 -62 -11 -25 -26 -53 -33 -63 -10 -14 -9 -19 2 -26 11 -7 11 -9 0 -14 -10
-4 -10 -6 -1 -6 7 -1 12 -14 11 -33 l-1 -33 -8 30 -7 30 -8 -38 c-5 -28 -2
-54 13 -98 15 -45 17 -57 6 -48 -7 6 -19 29 -24 50 -6 22 -15 39 -19 39 -13 0
6 -84 27 -127 27 -54 39 -99 46 -171 l6 -64 -33 27 c-17 15 -40 41 -49 59 -17
30 -17 30 -17 6 0 -14 13 -56 29 -95 31 -71 37 -127 22 -209 l-7 -39 -25 38
c-14 21 -35 45 -47 52 l-22 15 20 -38 c24 -47 26 -168 4 -240 -8 -27 -15 -50
-15 -51 0 -2 15 -3 34 -3 31 0 36 4 47 38 20 63 28 75 44 62 24 -20 84 -29
116 -18 37 13 38 32 1 23 -20 -4 -38 1 -62 17 -42 28 -48 60 -30 160 11 61 14
67 30 58 10 -6 31 -10 45 -10 l27 0 -26 31 c-14 17 -27 40 -27 52 -1 12 -2 56
-3 98 -1 76 -1 76 22 68 25 -10 67 3 74 23 4 9 -4 13 -25 13 -36 0 -69 41 -89
109 -11 41 -15 182 -5 193 7 7 162 -155 228 -239 27 -35 117 -128 198 -208
149 -146 280 -300 342 -404 34 -56 70 -79 91 -58 13 13 -40 112 -103 194 -22
29 -128 139 -234 243 -231 228 -423 446 -467 530 l-32 62 25 49 c16 33 36 56
61 69 48 27 98 72 98 88 0 7 -3 8 -8 2 -6 -9 -56 -35 -67 -35 -18 0 2 25 40
48 25 16 58 46 72 68 23 33 23 36 5 20 -20 -17 -22 -17 -22 -2 0 9 8 23 18 30
9 8 32 27 49 41 18 15 43 41 55 58 l21 32 -36 -34 c-48 -45 -47 -30 3 44 46
70 50 84 14 56 -43 -34 -45 -25 -8 37 19 31 42 82 50 112 37 133 57 186 84
220 15 19 57 86 94 149 53 91 61 110 41 97 l-25 -16 26 67 c57 146 93 261 107
338 8 44 16 87 18 95 3 10 -2 14 -16 12 -346 -43 -725 -122 -953 -198 -115
-38 -160 -41 -277 -18 -126 25 -263 21 -364 -10 -135 -42 -122 -47 -288 124
-287 297 -408 376 -653 426 -128 26 -212 31 -227 12z"/>
<path d="M3033 4073 c8 -16 17 -50 20 -78 l7 -50 -20 25 c-18 23 -20 24 -20 4
0 -11 16 -53 36 -92 25 -53 34 -83 32 -110 l-3 -37 -30 44 c-25 38 -30 42 -33
24 -5 -31 29 -89 86 -153 40 -45 54 -71 75 -140 22 -69 35 -94 72 -132 l45
-47 -40 -32 c-39 -32 -82 -105 -95 -164 l-7 -30 20 30 c36 54 145 152 240 214
50 34 92 65 92 71 0 5 -6 7 -12 5 -12 -5 -68 71 -68 91 0 5 -11 26 -25 47 -44
64 11 43 93 -36 37 -37 52 -46 52 -34 0 23 -36 94 -65 129 -12 15 -33 48 -45
73 -20 42 -107 125 -131 125 -4 0 -36 25 -70 55 -34 30 -65 55 -69 55 -4 0
-23 24 -41 52 -60 94 -131 161 -96 91z"/>
<path d="M5234 3826 c-18 -8 -51 -31 -75 -52 -80 -70 -81 -70 -73 -51 20 54
-69 -31 -113 -108 -16 -27 -49 -65 -74 -84 -50 -38 -62 -56 -30 -46 42 13 22
-29 -44 -90 -36 -34 -65 -63 -65 -66 0 -2 15 -5 32 -6 43 -3 72 -26 133 -102
46 -57 50 -60 53 -37 2 13 -3 37 -11 53 -30 58 -30 82 -1 106 82 67 138 127
172 181 38 59 92 182 92 207 0 6 16 34 35 60 38 54 31 62 -31 35z"/>
<path d="M4440 3133 c-57 -64 -91 -140 -97 -216 -6 -78 9 -61 33 38 24 96 39
129 81 175 20 23 33 43 31 46 -3 3 -25 -17 -48 -43z"/>
<path d="M3879 3113 c13 -25 15 -93 4 -93 -5 0 -17 7 -27 15 -11 8 -31 15 -44
15 -40 0 -141 -29 -207 -61 -34 -16 -72 -29 -84 -29 -14 0 -20 -4 -15 -11 4
-7 21 -9 42 -6 47 8 65 -4 107 -69 52 -81 133 -106 221 -69 38 16 54 13 54
-10 0 -8 5 -17 11 -21 9 -5 10 20 4 92 -8 119 -31 217 -57 247 l-19 22 10 -22z
m-39 -124 c0 -5 -4 -9 -10 -9 -5 0 -10 7 -10 16 0 8 5 12 10 9 6 -3 10 -10 10
-16z m-168 -11 c-7 -7 -12 -21 -12 -32 0 -19 0 -19 -21 0 l-21 19 29 12 c36
16 40 16 25 1z m198 -12 c0 -8 -4 -18 -10 -21 -5 -3 -10 3 -10 14 0 12 5 21
10 21 6 0 10 -6 10 -14z m-123 -33 c-10 -10 34 -53 54 -53 9 0 19 7 23 15 7
20 35 19 43 -1 7 -18 -33 -64 -56 -64 -9 0 -31 9 -48 20 -27 16 -33 26 -33 55
0 20 5 35 12 35 6 0 8 -3 5 -7z"/>
<path d="M4448 3063 c-27 -31 -48 -81 -68 -161 -26 -103 -25 -123 10 -185 73
-130 103 -274 71 -337 -38 -72 -88 -97 -167 -85 -48 7 -57 20 -21 30 63 20
109 103 86 157 -22 54 -131 77 -205 42 -44 -21 -57 -39 -56 -76 1 -33 59 -102
94 -114 46 -14 9 -24 -94 -24 -130 0 -163 7 -238 52 -41 25 -57 41 -65 66 -12
42 -25 41 -25 -2 0 -27 8 -41 40 -69 82 -75 108 -82 270 -80 123 2 151 0 185
-16 l40 -18 -69 -22 c-126 -39 -240 -26 -374 45 -77 40 -160 54 -237 40 -49
-9 -44 -26 8 -26 66 -1 121 -17 222 -66 180 -88 299 -83 493 23 117 64 147 97
151 161 1 7 11 17 24 22 17 7 18 9 5 9 -13 1 -18 9 -18 30 0 27 4 30 38 34
l37 4 -42 1 c-24 1 -43 7 -43 12 0 6 5 10 12 10 7 0 6 5 -3 13 -9 6 -23 39
-32 72 -9 33 -19 67 -22 76 -5 12 1 18 22 23 15 4 53 22 84 41 45 27 63 33 90
29 21 -4 48 0 69 9 l35 15 -42 1 c-48 1 -62 12 -99 81 -31 58 -76 84 -135 78
-51 -5 -50 10 4 70 l42 47 -48 -39 -49 -39 21 42 c23 44 23 51 -1 24z m112
-167 c-13 -13 -35 7 -25 24 5 8 11 8 21 -1 10 -8 12 -15 4 -23z m-129 -9 c-8
-8 -11 -7 -11 4 0 20 13 34 18 19 3 -7 -1 -17 -7 -23z m98 -49 c30 -18 8 -54
-40 -66 -50 -13 -83 9 -69 46 11 26 25 28 38 5 11 -19 42 -11 42 12 0 18 4 19
29 3z m27 -46 c-17 -16 -18 -16 -5 5 7 12 15 20 18 17 3 -2 -3 -12 -13 -22z
m-244 -309 l29 -29 -83 17 c-96 19 -123 13 -115 -28 3 -16 1 -21 -6 -14 -17
17 1 58 35 75 47 24 104 15 140 -21z m-1 -76 c-6 -8 -8 -17 -4 -20 3 -4 1 -7
-5 -7 -13 0 -16 22 -5 33 12 13 25 7 14 -6z m-63 -31 c27 -9 19 -26 -12 -26
-31 0 -50 22 -34 38 7 7 14 8 17 3 3 -4 16 -11 29 -15z"/>
<path d="M4578 2543 c7 -3 16 -2 19 1 4 3 -2 6 -13 5 -11 0 -14 -3 -6 -6z"/>
<path d="M3788 2483 c7 -3 16 -2 19 1 4 3 -2 6 -13 5 -11 0 -14 -3 -6 -6z"/>
<path d="M3893 2423 c9 -2 23 -2 30 0 6 3 -1 5 -18 5 -16 0 -22 -2 -12 -5z"/>
<path d="M4573 2423 c9 -2 25 -2 35 0 9 3 1 5 -18 5 -19 0 -27 -2 -17 -5z"/>
<path d="M3828 2413 c6 -2 18 -2 25 0 6 3 1 5 -13 5 -14 0 -19 -2 -12 -5z"/>
<path d="M4668 2413 c7 -3 16 -2 19 1 4 3 -2 6 -13 5 -11 0 -14 -3 -6 -6z"/>
<path d="M3477 1562 c-23 -96 -23 -102 12 -102 28 0 28 0 20 46 -5 25 -6 57
-3 69 3 13 2 31 -3 40 -7 12 -14 -1 -26 -53z"/>
</g>
</svg>
